# xmcd CD database file
#
# Track frame offsets:
#	150
#	38312
#	73252
#	82776
#	116571
#	144906
#	153465
#	175369
#	189329
#	207422
#	231195
#	258203
#	280868
#	299589
#	312670
#
# Disc length: 4353 seconds
#
# Revision: 0
# Processed by: cddbd v1.5.2PL0 Copyright (c) Steve Scherf et al.
# Submitted via: CDex 1.51
#
DISCID=d610ff0f
DTITLE=Al Di Meola - Pursuit of Radical Rhapsody
DYEAR=2011
DGENRE=Jazz
TTITLE0=Siberiana
TTITLE1=Paramour's Lullaby
TTITLE2=Mawazine, Pt. 1
TTITLE3=Michelangelo's 7th Child
TTITLE4=Gumbiero
TTITLE5=Brave New World
TTITLE6=Full Frontal Contrapuntal
TTITLE7=That Way Before
TTITLE8=Fireflies
TTITLE9=Destination Gonzalo
TTITLE10=Bona
TTITLE11=Radical Rhapsody
TTITLE12=Strawberry Fields
TTITLE13=Mawazine, Pt. 2
TTITLE14=Over the Rainbow
EXTD=YEAR: 2011
EXTT0=
EXTT1=
EXTT2=
EXTT3=
EXTT4=
EXTT5=
EXTT6=
EXTT7=
EXTT8=
EXTT9=
EXTT10=
EXTT11=
EXTT12=
EXTT13=
EXTT14=
PLAYORDER=
